<svg width="896" height="896" viewBox="0 0 896 896" fill="none" xmlns="http://www.w3.org/2000/svg">
<rect width="896" height="896" fill="#0D1B34"/>
<g clip-path="url(#clip0_297_977)">
<path opacity="0.59" d="M262.524 410.333H323.315C323.315 422.333 315.813 432 306.5 432H262.524C257.868 432 253.988 427 253.988 421C254.246 415.333 257.868 410.333 262.524 410.333Z" fill="#8DC63F"/>
<path opacity="0.59" d="M322.798 381.667L310.64 403.333H326.678C335.991 403.333 343.492 393.667 343.492 381.667H322.798Z" fill="#8DC63F"/>
<path opacity="0.59" d="M289.945 403L301.844 381.667H262.783C274.165 381.667 284.771 390 289.945 403Z" fill="#8DC63F"/>
<path d="M289.945 403.333V403L289.686 403.333H289.945Z" fill="#7DC400"/>
<path d="M302.362 381L301.844 381.667L289.945 403V403.333H289.686L285.806 410.333L273.13 432.667C268.215 440 259.42 441 253.729 434.667C248.038 428.333 247.262 417 252.177 409.667C254.764 406 258.386 403.667 262.266 403.333H289.945L290.203 403C285.03 390 274.424 381.667 263.042 381.667H261.231C243.899 383 230.965 401.667 232 423.333C233.035 445 247.521 461.667 264.335 460.333C273.13 459.667 281.408 454 286.582 445.333L287.617 443.333L306.242 410.333L310.122 403.333L322.28 381.667L325.384 376.333C318.4 369.333 307.794 371.333 302.362 381Z" fill="#7DC400"/>
<path d="M442.309 394.667V402.667C443.861 400.667 445.413 399.333 447.482 398.333C449.552 397.333 451.88 396.667 453.949 396.667C465.849 396.667 471.799 405.667 471.799 423.667V460.333C463.779 460.333 457.054 451.667 457.054 441.333V425C457.312 422 456.536 419 454.984 416.667C453.432 414.667 451.621 413.667 449.552 414C447.482 414 445.672 415 444.12 416.667C442.567 419 442.05 422 442.05 425V460.333C433.772 460.333 427.305 452 427.305 441.333V375.667C435.583 375.333 442.309 384 442.309 394.667Z" fill="#7DC400"/>
<path d="M532.331 429.333C532.331 423.333 533.624 417.667 536.211 413C538.798 408 542.161 404 546.299 401.333C553.543 396.333 562.338 395.667 570.098 399.333C573.461 401 576.307 403.333 578.893 406.333C581.48 409.333 583.55 413 584.843 416.667C586.395 420.667 586.913 425.333 586.913 429.667C586.913 434 586.137 438.667 584.584 442.667C583.291 446.667 581.222 450.333 578.635 453C576.048 456 573.202 458.333 569.84 460C563.114 463 555.871 463 549.404 460L548.369 459.333L547.334 458.667V484C539.056 484 532.589 475.333 532.589 465L532.331 429.333ZM547.075 429.667C547.075 432.333 547.593 435 548.886 437.333C549.921 439.667 551.473 441.667 553.543 443C555.353 444.333 557.423 445 559.492 445C561.562 445 563.89 444.333 565.701 443C567.511 441.667 569.064 439.667 570.357 437.333C571.392 435 572.168 432.333 572.168 429.667C572.168 425.333 570.874 421.333 568.546 418.667C563.631 412.667 555.871 412.667 551.214 418.667C548.628 421.667 547.075 425.333 547.075 429.667Z" fill="#7DC400"/>
<path d="M616.403 396.667C602.434 396.667 591.052 411.333 591.052 429.333C591.052 447.333 602.434 462 616.403 462C621.835 462 627.009 459.667 631.406 455.667C633.993 459.667 637.615 462 641.754 462V429.333C641.754 411.333 630.372 396.667 616.403 396.667ZM616.403 445C609.677 445 604.503 438 604.503 429.333C604.503 420.667 609.936 414 616.661 414C623.387 414 628.561 421 628.561 429.667C628.302 438 622.87 445 616.403 445Z" fill="#7DC400"/>
<path d="M502.065 396.667C488.096 396.667 476.714 411.333 476.714 429.333C476.714 447.333 488.096 462 502.065 462C507.497 462 512.671 459.667 517.068 455.667C519.655 459.667 523.277 462 527.416 462V429.333C527.416 411.333 516.034 396.667 502.065 396.667ZM502.065 445C495.339 445 489.907 438 489.907 429.667C489.907 421.333 495.339 414 501.806 414C508.532 414 513.964 421 513.964 429.333C513.964 438 508.791 445 502.065 445Z" fill="#7DC400"/>
<path d="M399.368 442.333C389.279 442.333 381.26 431.667 381.26 419C381.26 406 389.538 395.667 399.368 395.667C404.283 395.667 408.68 398.333 412.043 402.667L422.649 389.333C409.974 372.667 389.02 372.333 376.086 388.667C363.152 405 362.893 432 375.569 448.667C388.244 465.333 409.198 465.667 422.132 449.333L422.39 449L412.043 435.667C408.939 440 404.283 442.333 399.368 442.333Z" fill="#7DC400"/>
</g>
<defs>
<clipPath id="clip0_297_977">
<rect width="432" height="210" fill="white" transform="translate(232 323)"/>
</clipPath>
</defs>
</svg>
