<svg width="896" height="896" viewBox="0 0 896 896" fill="none" xmlns="http://www.w3.org/2000/svg">
<rect width="896" height="896" fill="#D9D9D9"/>
<path d="M332.51 395.307C328.244 400.104 321.418 403.887 314.592 403.346C313.739 396.861 317.081 389.971 320.991 385.715C325.257 380.783 332.723 377.27 338.767 377C339.478 383.755 336.705 390.376 332.51 395.307ZM338.696 404.63C328.812 404.089 320.351 409.967 315.659 409.967C310.895 409.967 303.713 404.9 295.892 405.035C285.725 405.17 276.268 410.642 271.078 419.357C260.412 436.786 268.305 462.592 278.614 476.778C283.663 483.804 289.706 491.505 297.67 491.235C305.207 490.965 308.193 486.574 317.294 486.574C326.466 486.574 329.097 491.235 337.06 491.1C345.308 490.965 350.498 484.074 355.547 477.049C361.306 469.077 363.652 461.308 363.794 460.903C363.652 460.768 347.868 455.026 347.725 437.732C347.583 423.275 360.168 416.384 360.737 415.979C353.627 405.981 342.535 404.9 338.696 404.63ZM395.79 385.039V490.357H412.997V454.35H436.816C458.573 454.35 473.86 440.164 473.86 419.627C473.86 399.09 458.858 385.039 437.385 385.039H395.79ZM412.997 398.82H432.834C447.766 398.82 456.298 406.386 456.298 419.695C456.298 433.003 447.766 440.637 432.763 440.637H412.997V398.82ZM505.287 491.167C516.095 491.167 526.12 485.966 530.671 477.724H531.026V490.357H546.953V437.934C546.953 422.735 534.155 412.939 514.459 412.939C496.186 412.939 482.677 422.87 482.179 436.516H497.679C498.959 430.03 505.287 425.775 513.962 425.775C524.485 425.775 530.386 430.436 530.386 439.015V444.825L508.913 446.041C488.934 447.189 478.126 454.958 478.126 468.469C478.126 482.115 489.289 491.167 505.287 491.167ZM509.909 478.67C500.737 478.67 494.906 474.481 494.906 468.064C494.906 461.443 500.523 457.593 511.26 456.985L530.386 455.836V461.781C530.386 471.644 521.57 478.67 509.909 478.67ZM568.212 519C584.993 519 592.885 512.92 599.782 494.478L630 413.952H612.509L592.245 476.17H591.889L571.625 413.952H553.637L582.788 490.627L581.224 495.288C578.593 503.192 574.327 506.232 566.719 506.232C565.368 506.232 562.738 506.097 561.671 505.962V518.595C562.666 518.865 566.933 519 568.212 519Z" fill="black"/>
</svg>
