<svg width="896" height="896" viewBox="0 0 896 896" fill="none" xmlns="http://www.w3.org/2000/svg">
<rect width="896" height="896" fill="#D9D9D9"/>
<path d="M439.285 446.581V479.914H426.654V397.478H459.505C467.502 397.478 475.078 399.982 480.982 404.643C486.88 408.94 489.829 415.394 489.829 422.206C489.829 429.018 486.886 435.108 480.982 439.769C475.085 444.43 467.93 446.934 459.505 446.934L439.285 446.581ZM439.285 407.511V436.189H460.348C464.981 436.189 469.615 434.749 472.564 431.892C479.304 426.52 479.304 417.556 472.979 412.178L472.564 411.814C469.194 408.946 464.981 407.153 460.348 407.517H439.285V407.511Z" fill="#5F6368"/>
<path d="M518.882 421.853C528.149 421.853 535.304 423.999 540.78 428.307C546.256 432.603 548.777 438.34 548.777 445.511V479.925H536.989V472.037H536.574C531.526 478.491 524.358 481.718 515.94 481.718C508.785 481.718 502.46 479.925 497.411 476.345C492.777 472.76 489.829 467.74 489.829 462.368C489.829 456.631 492.356 451.981 497.411 448.39C502.46 444.805 509.614 443.371 518.046 443.371C525.628 443.371 531.526 444.446 536.153 446.956V444.452C536.153 440.867 534.475 437.287 531.105 435.13C527.735 432.626 523.522 431.186 518.888 431.186C511.734 431.186 506.257 433.69 502.466 438.715L491.514 432.979C498.247 425.433 507.093 421.853 518.882 421.853ZM502.881 462.709C502.881 465.578 504.559 468.082 507.093 469.516C510.035 471.309 513.405 472.384 516.775 472.384C521.824 472.384 526.885 470.592 530.67 467.37C534.883 464.138 536.982 460.205 536.982 455.897C533.198 453.393 527.715 451.953 520.56 451.953C515.512 451.953 511.293 453.029 507.929 455.175C504.559 456.973 502.881 459.483 502.881 462.709Z" fill="#5F6368"/>
<path d="M617 423.646L575.316 505H562.672L578.258 476.687L550.883 423.999H564.363L584.149 464.496H584.57L603.941 423.999H617V423.646Z" fill="#5F6368"/>
<path d="M389.183 439.416C389.183 436.183 388.755 432.962 388.34 429.735H335.704V448.015H365.599C364.335 453.752 360.551 459.124 354.647 462.351V474.177H372.754C383.279 465.936 389.183 453.746 389.183 439.416Z" fill="#4285F4"/>
<path d="M335.691 485.645C350.849 485.645 363.48 481.348 372.754 474.171L354.647 462.345C349.599 465.214 343.273 467.006 335.704 467.006C321.381 467.006 308.75 458.765 304.545 447.292H286.003V459.483C295.685 475.611 314.641 485.645 335.691 485.645Z" fill="#34A853"/>
<path d="M304.531 447.298C302.004 441.561 302.004 435.108 304.531 429.018V416.828H286.003C277.999 430.094 277.999 445.864 286.003 459.483L304.531 447.298Z" fill="#FBBC04"/>
<path d="M335.69 409.663C343.694 409.663 351.277 412.167 357.167 416.828L373.175 403.209C363.065 395.327 349.592 390.666 336.112 391.019C315.049 391.019 295.691 401.052 286.424 417.186L304.952 429.365C308.743 417.909 321.374 409.663 335.69 409.663Z" fill="#EA4335"/>
</svg>
