<svg width="896" height="896" viewBox="0 0 896 896" fill="none" xmlns="http://www.w3.org/2000/svg">
<rect width="896" height="896" fill="#D9D9D9"/>
<path d="M391.409 496.483L410.912 401.343H442.106L422.589 496.483H391.409ZM535.289 403.394C529.11 401.467 519.426 399.398 507.332 399.398C476.508 399.398 454.797 412.302 454.611 430.796C454.437 444.467 470.112 452.093 481.944 456.644C494.087 461.309 498.168 464.282 498.11 468.445C498.032 474.823 488.414 477.735 479.447 477.735C466.962 477.735 460.329 476.293 450.084 472.743L446.063 471.231L441.686 492.528C448.972 495.185 462.445 497.485 476.435 497.604C509.226 497.604 530.513 484.848 530.755 465.098C530.871 454.275 522.561 446.04 504.563 439.249C493.66 434.848 486.983 431.911 487.054 427.454C487.054 423.5 492.706 419.271 504.92 419.271C515.119 419.139 522.509 420.989 528.267 422.916L531.062 424.014L535.289 403.394ZM615.563 401.342H591.459C583.992 401.342 578.403 403.036 575.125 409.232L528.797 496.42H561.554C561.554 496.42 566.908 484.697 568.119 482.123C571.699 482.123 603.521 482.164 608.07 482.164C609.003 485.495 611.865 496.42 611.865 496.42H640.81L615.563 401.339V401.342ZM577.319 462.777C579.899 457.296 589.748 436.181 589.748 436.181C589.564 436.435 592.309 430.673 593.883 427.101L595.991 435.304C595.991 435.304 601.964 458.014 603.213 462.776H577.319V462.777ZM364.928 401.342L334.388 466.223L331.135 453.038C325.449 437.839 307.736 421.372 287.933 413.128L315.858 496.331L348.863 496.301L397.973 401.341L364.928 401.34" fill="#0E4595"/>
<path d="M305.891 401.339H255.591L255.192 403.318C294.325 411.193 320.219 430.225 330.97 453.094L320.032 409.374C318.144 403.349 312.668 401.551 305.893 401.341" fill="#F2AE14"/>
</svg>
